<?xml version="1.0" encoding="utf-8"?>
<!-- Generator: Adobe Illustrator 22.1.0, SVG Export Plug-In . SVG Version: 6.00 Build 0)  -->
<svg version="1.1" id="Layer_1" xmlns="http://www.w3.org/2000/svg" xmlns:xlink="http://www.w3.org/1999/xlink" x="0px" y="0px"
	 viewBox="0 0 128 128" style="enable-background:new 0 0 128 128;" xml:space="preserve">
<path d="M30.4,23.6c-3.5,3.6-7,7.2-10.5,10.8c-2.6,2.7-5.5,3.6-8.4,0.8c-2.9-2.8-2-5.7,0.7-8.4c6.7-6.7,13.4-13.4,20.1-20.1
	c3.1-3.1,6.2-3.1,9.3,0c6.7,6.7,13.4,13.4,20.1,20.1c2.6,2.6,3.6,5.5,0.7,8.4c-2.9,2.8-5.8,1.9-8.4-0.7c-3.4-3.5-6.8-7.1-11.2-11.7
	c-0.1,3.1-0.3,4.8-0.3,6.5c0,28.3,0,56.5,0,84.8c0,1.7,0.4,3.8-0.4,5c-1.3,1.8-3.5,4.2-5.3,4.2c-1.8-0.1-3.8-2.6-5-4.5
	c-0.7-1.1-0.2-3-0.2-4.5c0-29.9,0-59.9,0-89.8C31.1,24.1,30.7,23.9,30.4,23.6z"/>
<path d="M97.6,104.2c3.4-3.5,6.8-7,10.2-10.5c2.7-2.8,5.7-4.1,8.8-0.9c2.8,2.9,1.8,5.8-0.9,8.4c-6.6,6.6-13.2,13.1-19.7,19.8
	c-3.2,3.3-6.4,3.4-9.7,0.1c-6.7-6.7-13.4-13.4-20.1-20.1c-2.7-2.7-3.4-5.6-0.4-8.4c2.7-2.6,5.6-1.9,8,0.7c3.5,3.6,6.9,7.3,11.4,12.1
	c0.2-3.5,0.3-5.2,0.3-7c0-28.1,0-56.2,0-84.3c0-1.7-0.5-3.8,0.3-5c1.4-1.9,3.6-4.3,5.6-4.4c1.6-0.1,3.6,2.7,4.8,4.6
	c0.7,1.1,0.2,3,0.2,4.5c0,28.1,0,56.2,0,84.3c0,1.8,0,3.7,0,5.5C96.9,103.8,97.3,104,97.6,104.2z"/>
</svg>
